<svg xmlns="http://www.w3.org/2000/svg" width="1200" height="800" viewBox="0 0 1200 800">
  <defs>
    <linearGradient id="bg" x1="0" y1="0" x2="1" y2="1">
      <stop offset="0" stop-color="#F8FAFF"/>
      <stop offset="0.52" stop-color="#EEF7F2"/>
      <stop offset="1" stop-color="#FFF6E8"/>
    </linearGradient>
    <linearGradient id="accent" x1="0" y1="0" x2="1" y2="1">
      <stop offset="0" stop-color="#2155D9"/>
      <stop offset="1" stop-color="#0E9F6E"/>
    </linearGradient>
    <filter id="shadow" x="-20%" y="-20%" width="140%" height="140%">
      <feDropShadow dx="0" dy="18" stdDeviation="22" flood-color="#172033" flood-opacity="0.16"/>
    </filter>
  </defs>
  <rect width="1200" height="800" fill="url(#bg)"/>
  <path d="M0 590 C190 520 372 630 552 560 C758 480 936 620 1200 516 L1200 800 L0 800 Z" fill="#2155D9" opacity="0.08"/>
  <path d="M0 680 C210 604 402 722 626 642 C820 574 1008 700 1200 622 L1200 800 L0 800 Z" fill="#F59E0B" opacity="0.14"/>

  <g filter="url(#shadow)">
    <rect x="704" y="112" width="372" height="464" rx="44" fill="#FFFFFF"/>
    <rect x="752" y="164" width="276" height="176" rx="28" fill="#E9F0FF"/>
    <rect x="790" y="210" width="84" height="18" rx="9" fill="#2155D9" opacity="0.88"/>
    <rect x="790" y="248" width="190" height="14" rx="7" fill="#7A92C7"/>
    <rect x="790" y="282" width="154" height="14" rx="7" fill="#AAB7CF"/>
    <circle cx="970" cy="220" r="32" fill="#0E9F6E" opacity="0.9"/>
    <path d="M950 286 L976 260 L1004 290" fill="none" stroke="#F59E0B" stroke-width="10" stroke-linecap="round" stroke-linejoin="round"/>
    <rect x="752" y="380" width="124" height="94" rx="22" fill="#ECFDF5"/>
    <rect x="904" y="380" width="124" height="94" rx="22" fill="#FFF7E6"/>
    <text x="786" y="438" font-family="Arial, Helvetica, sans-serif" font-size="34" font-weight="900" fill="#0E9F6E">IELTS</text>
    <text x="930" y="438" font-family="Arial, Helvetica, sans-serif" font-size="34" font-weight="900" fill="#F59E0B">TOEFL</text>
    <rect x="752" y="512" width="276" height="30" rx="15" fill="url(#accent)" opacity="0.94"/>
  </g>

  <text x="80" y="148" font-family="Arial, Helvetica, sans-serif" font-size="34" font-weight="800" fill="#2155D9" letter-spacing="4">ADVANCED</text>
  <text x="80" y="246" font-family="PingFang SC, Hiragino Sans GB, Arial, sans-serif" font-size="88" font-weight="900" fill="#172033">雅思托福</text>
  <text x="84" y="318" font-family="Arial, Helvetica, sans-serif" font-size="38" font-weight="800" fill="#344054">IELTS &amp; TOEFL Vocabulary</text>
  <text x="84" y="384" font-family="PingFang SC, Hiragino Sans GB, Arial, sans-serif" font-size="30" font-weight="600" fill="#667085">学术 · 论证 · 科研 · 数据 · 社会 · 写作</text>
  <g transform="translate(84 470)">
    <rect width="132" height="48" rx="24" fill="#0E9F6E"/>
    <text x="28" y="32" font-family="PingFang SC, Hiragino Sans GB, Arial, sans-serif" font-size="23" font-weight="900" fill="#FFFFFF">进阶</text>
    <rect x="152" width="176" height="48" rx="24" fill="#2155D9" opacity="0.94"/>
    <text x="181" y="32" font-family="Arial, Helvetica, sans-serif" font-size="23" font-weight="900" fill="#FFFFFF">1000 WORDS</text>
  </g>
  <g transform="translate(84 608)" opacity="0.95">
    <rect x="0" y="0" width="112" height="88" rx="18" fill="#FFFFFF" stroke="#D7E3EF" stroke-width="3"/>
    <rect x="22" y="22" width="68" height="12" rx="6" fill="#2155D9" opacity="0.78"/>
    <rect x="22" y="50" width="48" height="12" rx="6" fill="#0E9F6E" opacity="0.78"/>
    <rect x="142" y="0" width="112" height="88" rx="18" fill="#FFFFFF" stroke="#D7E3EF" stroke-width="3"/>
    <path d="M170 58 L196 28 L226 58" fill="none" stroke="#F59E0B" stroke-width="9" stroke-linecap="round" stroke-linejoin="round"/>
    <rect x="284" y="0" width="112" height="88" rx="18" fill="#FFFFFF" stroke="#D7E3EF" stroke-width="3"/>
    <circle cx="340" cy="44" r="25" fill="#2155D9" opacity="0.78"/>
  </g>
</svg>
