<svg xmlns="http://www.w3.org/2000/svg" width="1200" height="800" viewBox="0 0 1200 800">
  <defs>
    <linearGradient id="bg" x1="0" y1="0" x2="1" y2="1">
      <stop offset="0" stop-color="#F8FAFF"/>
      <stop offset="0.52" stop-color="#F0FDF4"/>
      <stop offset="1" stop-color="#FFF7ED"/>
    </linearGradient>
    <linearGradient id="accent" x1="0" y1="0" x2="1" y2="1">
      <stop offset="0" stop-color="#2563EB"/>
      <stop offset="1" stop-color="#16A34A"/>
    </linearGradient>
    <filter id="shadow" x="-20%" y="-20%" width="140%" height="140%">
      <feDropShadow dx="0" dy="18" stdDeviation="22" flood-color="#172033" flood-opacity="0.16"/>
    </filter>
  </defs>
  <rect width="1200" height="800" fill="url(#bg)"/>
  <path d="M0 596 C190 524 360 636 548 560 C762 474 936 628 1200 516 L1200 800 L0 800 Z" fill="#2563EB" opacity="0.08"/>
  <path d="M0 682 C214 604 404 724 624 646 C830 582 1000 704 1200 624 L1200 800 L0 800 Z" fill="#F59E0B" opacity="0.13"/>

  <g filter="url(#shadow)">
    <rect x="710" y="118" width="364" height="452" rx="44" fill="#FFFFFF"/>
    <rect x="760" y="170" width="264" height="154" rx="28" fill="#EAF1FF"/>
    <circle cx="824" cy="238" r="36" fill="#2563EB" opacity="0.9"/>
    <path d="M876 222 C916 190 968 198 988 238 C962 274 912 282 876 250" fill="#16A34A" opacity="0.86"/>
    <rect x="760" y="364" width="264" height="24" rx="12" fill="#CBD5E1"/>
    <rect x="760" y="412" width="210" height="24" rx="12" fill="#CBD5E1"/>
    <rect x="760" y="486" width="124" height="46" rx="23" fill="#2563EB" opacity="0.94"/>
    <rect x="904" y="486" width="120" height="46" rx="23" fill="#16A34A" opacity="0.94"/>
  </g>

  <g transform="translate(736 610)" opacity="0.96">
    <rect x="0" y="0" width="86" height="70" rx="18" fill="#FFFFFF" stroke="#D7E3EF" stroke-width="3"/>
    <path d="M22 42 C32 22 54 22 64 42" fill="none" stroke="#2563EB" stroke-width="8" stroke-linecap="round"/>
    <rect x="112" y="0" width="86" height="70" rx="18" fill="#FFFFFF" stroke="#D7E3EF" stroke-width="3"/>
    <rect x="136" y="20" width="38" height="30" rx="8" fill="#F59E0B" opacity="0.88"/>
    <rect x="224" y="0" width="86" height="70" rx="18" fill="#FFFFFF" stroke="#D7E3EF" stroke-width="3"/>
    <circle cx="267" cy="35" r="22" fill="#16A34A" opacity="0.84"/>
  </g>

  <text x="80" y="148" font-family="Arial, Helvetica, sans-serif" font-size="34" font-weight="800" fill="#2563EB" letter-spacing="4">ADVANCED</text>
  <text x="80" y="244" font-family="PingFang SC, Hiragino Sans GB, Arial, sans-serif" font-size="82" font-weight="900" fill="#172033">小柚口语进阶</text>
  <text x="84" y="316" font-family="Arial, Helvetica, sans-serif" font-size="38" font-weight="800" fill="#344054">Xiaoyou Speaking Plus</text>
  <text x="84" y="382" font-family="PingFang SC, Hiragino Sans GB, Arial, sans-serif" font-size="30" font-weight="600" fill="#667085">263 个主题 · 观点表达 · 情绪心理 · 人际沟通</text>
  <g transform="translate(84 470)">
    <rect width="132" height="48" rx="24" fill="#16A34A"/>
    <text x="28" y="32" font-family="PingFang SC, Hiragino Sans GB, Arial, sans-serif" font-size="23" font-weight="900" fill="#FFFFFF">进阶</text>
    <rect x="152" width="176" height="48" rx="24" fill="#2563EB" opacity="0.94"/>
    <text x="181" y="32" font-family="Arial, Helvetica, sans-serif" font-size="23" font-weight="900" fill="#FFFFFF">1000 WORDS</text>
    <rect x="350" width="154" height="48" rx="24" fill="#F59E0B" opacity="0.94"/>
    <text x="382" y="32" font-family="Arial, Helvetica, sans-serif" font-size="23" font-weight="900" fill="#FFFFFF">263 TOPICS</text>
  </g>
  <g transform="translate(84 608)" opacity="0.95">
    <rect x="0" y="0" width="112" height="88" rx="18" fill="#FFFFFF" stroke="#D7E3EF" stroke-width="3"/>
    <rect x="22" y="24" width="68" height="12" rx="6" fill="#2563EB" opacity="0.78"/>
    <rect x="22" y="52" width="48" height="12" rx="6" fill="#16A34A" opacity="0.78"/>
    <rect x="142" y="0" width="112" height="88" rx="18" fill="#FFFFFF" stroke="#D7E3EF" stroke-width="3"/>
    <path d="M168 56 C184 28 214 28 228 56" fill="none" stroke="#F59E0B" stroke-width="9" stroke-linecap="round"/>
    <rect x="284" y="0" width="112" height="88" rx="18" fill="#FFFFFF" stroke="#D7E3EF" stroke-width="3"/>
    <path d="M314 58 L340 30 L370 58" fill="none" stroke="#16A34A" stroke-width="9" stroke-linecap="round" stroke-linejoin="round"/>
  </g>
</svg>
